# xmcd
#
# Track frame offsets:
#	150
#	19720
#	32188
#	52526
#	69445
#	85862
#	101748
#	119585
#	139323
#	160609
#	188540
#	205296
#	222411
#	241146
#	258573
#
# Disc length: 3683 seconds
#
# Revision: 1
# Processed by: cddbd v1.5.1PL2 Copyright (c) Steve Scherf et al.
# Submitted via: audiograbber 1.83.01
#
DISCID=cc0e610f
DTITLE=Various Artist - CB - Hot Country Hits - Vol 231
DYEAR=2002
DGENRE=Country
TTITLE0=Clint Black - Money Or Love
TTITLE1=Mike Walker - Who's Your Daddy
TTITLE2=Terri Clark - Empty
TTITLE3=Brad Martin - Before I Knew Better
TTITLE4=Derailers - Bar Exam
TTITLE5=Alison Krauss and Union Station - Le Me Touch You For A While
TTITLE6=Trace Adkins - Help Me Understand
TTITLE7=Earl Thomas Conley - Love's The Only Voice
TTITLE8=Willie Nelson and Lee Ann Womack - Mendocino County Line
TTITLE9=Tim McGraw - Angel Boy
TTITLE10=Ray Stevens - Osama Yo Mama
TTITLE11=Garth Brooks and Trisha Yearwood - Squeeze Me In
TTITLE12=Alabama - Woman He Loves
TTITLE13=Brian McComas - I Could Never Love You Enough
TTITLE14=Sawyer Brown - Circles
EXTD=
EXTT0=
EXTT1=
EXTT2=
EXTT3=
EXTT4=
EXTT5=
EXTT6=
EXTT7=
EXTT8=
EXTT9=
EXTT10=
EXTT11=
EXTT12=
EXTT13=
EXTT14=
PLAYORDER=
